<svg width="714" height="714" viewBox="0 0 714 714" fill="none" xmlns="http://www.w3.org/2000/svg">
  <g clip-path="url(#clip0_108_3)">
    <rect width="714" height="714" rx="150" fill="black" />
    <path
      d="M142.834 378.713C142.834 405.068 159.374 420.378 180.926 420.378C202.728 420.378 219.017 403.562 219.017 378.713V272.04H253.851V447.737H219.268V428.912C208.241 442.717 191.952 451 173.157 451C135.817 451 108 423.139 108 381.223V272.04H142.834V378.713Z"
      fill="white" />
    <path
      d="M270.789 447.737V262H304.369V330.522C313.391 317.972 326.924 310.944 343.213 310.944C374.789 310.944 397.844 335.04 397.844 372.689V389.255C397.844 426.904 374.789 451 343.213 451C326.422 451 313.14 443.47 304.369 430.418V447.737H270.789ZM304.369 374.948V386.996C304.369 408.331 315.396 421.633 334.692 421.633C353.989 421.633 364.765 408.331 364.765 386.996V374.948C364.765 353.865 353.989 340.311 334.692 340.311C315.396 340.311 304.369 353.865 304.369 374.948Z"
      fill="white" />
    <path
      d="M401.353 387.498V374.446C401.353 336.295 425.661 310.944 462.25 310.944C495.58 310.944 518.635 336.797 518.635 373.944V391.765H434.182C435.435 411.092 446.712 421.884 464.505 421.884C476.534 421.884 486.558 417.367 495.58 408.331L515.879 428.41C503.098 442.466 486.308 450.749 463.503 450.749C426.413 450.749 401.353 425.9 401.353 387.498ZM434.433 366.414H486.558C485.054 349.598 475.532 340.06 460.746 340.06C445.96 340.06 436.437 349.347 434.433 366.414Z"
      fill="white" />
    <path
      d="M606 346.084H591.214C574.925 346.084 560.641 358.131 560.641 378.713V447.737H527.06V314.207H560.39V340.311C565.903 323.996 577.682 312.952 595.725 312.952H606V346.084Z"
      fill="white" />
  </g>
  <defs>
    <clipPath id="clip0_108_3">
      <rect width="714" height="714" fill="white" />
    </clipPath>
  </defs>
</svg>